<?xml version="1.0" encoding="UTF-8"?>
<svg viewBox="0 0 908 200" version="1.1" xmlns="http://www.w3.org/2000/svg" xmlns:xlink="http://www.w3.org/1999/xlink">
    <!-- Generator: Sketch 49.2 (51160) - http://www.bohemiancoding.com/sketch -->
    <title>logo-combined-white</title>
    <desc>Created with Sketch.</desc>
    <defs></defs>
    <g id="logo-combined-white" stroke="none" stroke-width="1" fill="none" fill-rule="evenodd">
        <g id="logo-horizontal" fill="#FFFFFF">
            <g>
                <path d="M393.077125,157.142857 L365.314375,157.142857 L365.314375,125.257143 L321.442375,125.257143 L321.442375,157.142857 L294.365125,157.142857 L294.365125,92 C294.365125,61.4857143 311.674,42.8 343.54975,42.8 C375.596875,42.8 393.077125,61.4857143 393.077125,92 L393.077125,157.142857 Z M365.314375,101.257143 L365.314375,92 C365.314375,76.5714286 358.63075,68.5142857 343.378375,68.5142857 C328.297375,68.5142857 321.442375,76.5714286 321.442375,92 L321.442375,101.257143 L365.314375,101.257143 Z M494.188375,157.142857 L413.47075,157.142857 L413.47075,45.0285714 L441.2335,45.0285714 L441.2335,131.428571 L494.188375,131.428571 L494.188375,157.142857 Z M567.879625,157.142857 L510.12625,157.142857 L510.12625,45.0285714 L563.423875,45.0285714 C585.359875,45.0285714 596.327875,57.3714286 596.327875,74.5142857 C596.327875,85.4857143 591.358,94.0571429 582.78925,98.6857143 L582.78925,99.0285714 C594.614125,103.314286 601.469125,113.257143 601.469125,126.457143 C601.469125,144.114286 590.32975,157.142857 567.879625,157.142857 Z M562.22425,111.371429 L537.889,111.371429 L537.889,131.428571 L562.22425,131.428571 C570.278875,131.428571 573.020875,126.971429 573.020875,121.485714 C573.020875,116 569.422,111.371429 562.22425,111.371429 Z M558.79675,70.7428571 L537.889,70.7428571 L537.889,89.0857143 L558.79675,89.0857143 C566.165875,89.0857143 568.907875,84.9714286 568.907875,80 C568.907875,74.8571429 566.851375,70.7428571 558.79675,70.7428571 Z M700.181125,157.142857 L617.407,157.142857 L617.407,45.0285714 L700.181125,45.0285714 L700.181125,70.7428571 L645.16975,70.7428571 L645.16975,89.0857143 L690.241375,89.0857143 L690.241375,111.371429 L645.16975,111.371429 L645.16975,131.428571 L700.181125,131.428571 L700.181125,157.142857 Z M811.917625,157.142857 L779.013625,157.142857 L759.134125,122 L747.30925,122 L747.30925,157.142857 L719.5465,157.142857 L719.5465,45.0285714 L764.960875,45.0285714 C794.60875,45.0285714 807.804625,61.1428571 807.804625,83.4285714 C807.804625,99.2 801.121,112.057143 786.896875,118.057143 L786.896875,118.4 L811.917625,157.142857 Z M747.30925,96.2857143 L765.303625,96.2857143 C776.443,96.2857143 779.699125,90.8 779.699125,83.4285714 C779.699125,76.0571429 776.443,70.7428571 765.303625,70.7428571 L747.30925,70.7428571 L747.30925,96.2857143 Z M876.354625,157.142857 L848.591875,157.142857 L848.591875,70.7428571 L818.087125,70.7428571 L818.087125,45.0285714 L907.03075,45.0285714 L907.03075,70.7428571 L876.354625,70.7428571 L876.354625,157.142857 Z" id="ALBERT"></path>
                <g id="albert_logo_webinar">
                    <path d="M205.28868,120.546336 C204.970704,107.953679 203.583169,95.3610223 200.634657,83.088271 C197.772866,71.2226726 193.379006,59.7060624 187.077285,49.2945815 C179.648192,36.9055008 169.24168,26.2031964 156.696052,19.0780209 C152.967052,16.9550094 149.06461,15.1228215 145.017633,13.7559511 C144.67075,13.668704 144.352773,13.5232923 144.034796,13.3778805 C148.659912,11.5166102 153.400657,10.004328 158.083587,8.3175518 C158.835168,8.11397536 158.777354,6.89251671 158.05468,6.71802261 C139.294052,1.33778805 119.059168,0.814305771 100.182912,5.96188154 C96.6851676,6.89251671 93.2452374,8.05581066 89.8631211,9.42268107 C91.9444234,6.71802261 94.1413537,4.07152886 96.3382839,1.4250351 C96.7429816,0.988799865 96.4539118,0.378070537 96.1648421,0 L95.3843537,0 C81.133214,2.29750557 67.1422371,6.63077556 54.5387951,13.9886099 C43.7853996,20.1540678 34.2460972,28.4425373 26.6724692,38.2432889 C17.2487947,50.3706284 10.7736318,64.6209794 6.6688411,79.3948127 C2.99765501,92.5109521 1.06088755,106.092409 0.309306144,119.732031 C-0.702438053,140.496828 0.771817777,161.348872 4.67425968,181.793763 C4.87660852,182.898893 4.87660852,184.149434 5.51256201,185.138234 C6.0328876,186.039786 7.27588761,186.21428 8.1720039,185.778045 C9.03921321,185.370892 9.32828299,184.35301 9.76188764,183.538704 C12.4213295,178.332964 14.9940505,173.039976 17.6245854,167.834236 C18.144911,166.583695 20.2551203,166.205624 20.9199808,167.51433 C21.8160971,169.201106 21.6426552,171.178706 21.6715622,173.039976 C21.7293761,177.315082 22.4231436,181.677434 24.3310041,185.516304 C25.7763529,188.424539 27.9732832,190.954703 30.6327251,192.786891 C33.9570274,195.142562 37.9172833,196.422185 41.8775391,197.236491 C49.4222602,198.690608 57.198237,198.632443 64.8585859,198.632443 C69.4837022,198.574279 74.1955395,197.643644 78.2714233,195.433385 C81.2777489,193.862938 83.8215629,191.53635 85.8450512,188.831692 C89.920935,183.393293 92.2624002,176.907929 94.1124467,170.422565 C95.008563,167.51433 95.9335862,164.431601 97.8414467,162.017766 C98.9977258,160.534566 100.818865,159.574849 102.697819,159.720261 C104.721307,159.749343 106.455726,161.087131 107.525284,162.715742 C109.548772,165.740307 110.358168,169.3756 111.427726,172.8364 C113.248865,178.885528 115.734866,184.934657 119.781842,189.878656 C123.25068,194.241009 128.396121,196.97475 133.743912,198.021714 C136.490075,198.545196 139.236238,198.690608 142.011308,198.661526 C148.168494,198.661526 154.32568,198.632443 160.425052,197.701808 C164.500936,197.061997 168.547913,196.044114 172.190192,194.037432 C175.225424,192.350656 177.884866,189.936821 179.706006,186.941339 C182.076378,182.957057 182.972494,178.274799 183.117029,173.679788 C183.232657,171.876682 183.030308,170.073577 183.550634,168.357718 C183.752983,167.746989 184.042052,167.078095 184.649099,166.787271 C185.603029,166.467365 186.759308,166.816354 187.192913,167.776071 C190.054704,173.418047 192.85868,179.118187 195.691564,184.760163 C196.21189,186.010704 198.004122,186.417857 198.986959,185.516304 C199.738541,184.84741 199.94089,183.800445 200.085425,182.840728 C201.357332,173.21447 202.947215,163.559131 203.901146,153.903791 C205.028518,142.852498 205.57775,131.684876 205.28868,120.546336 Z M81.8269814,182.433575 C79.5144233,185.632633 76.3635628,188.250045 72.7790976,189.878656 C69.0211906,191.594515 64.8585859,192.263409 60.7537952,192.205244 C55.6083533,192.234327 50.4340044,192.03075 45.3174694,191.15828 C41.7619112,190.518468 38.1774461,189.558751 35.0843995,187.639316 C32.6273065,186.097951 30.6616321,183.829528 29.505353,181.153952 C28.0021902,177.634987 27.6842134,173.737953 27.8865623,169.957247 C27.8865623,166.351036 28.0021902,162.512166 29.9100506,159.313108 C31.7311902,156.172214 34.9687716,154.165532 38.321981,153.03132 C41.5306554,151.926191 44.8549578,151.431791 48.1503532,151.140968 C54.1051904,150.762897 60.0600277,150.995556 65.985958,151.577203 C70.986865,152.15885 76.045586,152.944073 80.7285163,154.921673 C82.8676326,155.852308 84.948935,157.102849 86.3653768,159.022284 C87.3193071,160.301908 87.7818187,161.959601 87.7240048,163.559131 C87.6083768,170.218989 85.7872373,176.995176 81.8269814,182.433575 Z M176.208262,174.086941 C175.919192,178.15847 174.705099,182.37541 171.814401,185.370892 C168.836982,188.424539 164.645471,189.907739 160.569587,190.780209 C154.961633,191.914421 149.209145,192.176162 143.543377,192.14708 C140.710494,192.205244 137.848703,191.885338 135.073633,191.15828 C130.101633,189.849574 125.621052,186.854092 122.556912,182.695316 C118.452121,177.16967 116.486447,170.131741 116.45754,163.297389 C116.341912,160.82539 117.729447,158.556967 119.637307,157.131931 C122.412377,154.950755 125.852307,153.874708 129.205517,153.060403 C133.888447,151.955273 138.687005,151.460873 143.456657,151.140968 C149.989633,150.850144 156.638238,150.704732 163.02668,152.187932 C166.842401,153.118567 170.744843,154.718097 173.25975,157.85899 C175.398866,160.418237 176.092634,163.879036 176.208262,167.13626 C176.237169,169.462847 176.352796,171.760353 176.208262,174.086941 Z M196.645494,150.937391 C196.443145,155.648732 196.327518,160.360072 195.865006,165.013248 C193.957145,161.261625 192.136006,157.48092 190.257052,153.700214 C189.505471,152.15885 188.117936,150.995556 186.499145,150.530238 C173.346471,146.604121 159.615657,144.684686 145.91375,144.85918 C138.600284,145.004592 131.257912,145.906145 124.349145,148.436309 C122.181121,149.221533 120.099819,150.152168 117.960703,151.111885 C116.804424,151.606285 115.619238,152.15885 114.376238,152.275179 C110.647238,152.53692 107.120586,150.908309 103.420493,150.821062 C101.136842,150.704732 98.8531909,150.850144 96.6562607,151.402709 C94.4593304,151.926191 92.1756792,152.391509 89.920935,152.333344 C88.620121,152.217014 87.377121,151.66445 86.163028,151.17005 C82.8965396,149.715932 79.6011442,148.290897 76.1612139,147.360262 C67.200051,144.830098 57.7474696,144.684686 48.4972369,145.179086 C38.0618182,145.818898 27.6842134,147.651086 17.6823994,150.646568 C16.1503296,151.111885 14.8206086,152.187932 14.0690272,153.612967 C12.1322598,157.510002 10.1954923,161.436119 8.25872483,165.304072 C7.99856204,164.838754 8.08528297,164.257107 8.05637599,163.762707 C7.59386436,156.055885 7.53605041,148.31998 7.68058529,140.584075 C7.88293413,132.35377 8.40325972,124.094383 9.44391089,115.922243 C10.8603528,105.219939 12.9994691,94.5176341 17.2198877,84.5423884 C19.9371436,78.0570246 23.7239576,71.7461549 29.3030041,67.2674732 C33.7835856,63.6612619 39.4204461,61.6254975 45.1151206,61.5673328 C51.0121439,61.5091681 56.8802602,62.003568 62.6327487,63.254109 C68.3274232,64.50465 73.8775627,66.5113321 79.5433303,67.8782025 C86.163028,69.5649787 93.0139816,70.3502022 99.8649351,70.4083668 C101.079028,70.4665315 102.235307,70.5246962 103.4494,70.4083668 C109.057354,70.3502022 114.665307,69.8267199 120.157633,68.7215906 C128.135959,67.1511438 135.767401,64.0102501 143.80354,62.6433797 C147.041122,62.0617327 150.249796,61.7418269 153.516285,61.5964151 C156.117912,61.5382504 158.71954,61.421921 161.321168,61.7418269 C165.686122,62.2362268 169.906541,63.7485089 173.54882,66.1914262 C178.376285,69.3614023 182.105285,74.0145781 184.938169,78.9876598 C188.204657,84.8041296 190.401587,91.1440817 192.020378,97.5712808 C194.997797,109.436879 196.182983,121.680548 196.616587,133.924217 C196.818936,139.595275 196.761122,145.266333 196.645494,150.937391 Z" id="Shape"></path>
                    <path d="M39.0169703,126.98467 C43.8444355,124.280012 49.3078541,122.884059 54.8001798,122.360577 C63.2410171,121.633518 71.8842032,122.884059 79.689087,126.286694 C82.8110406,127.711729 85.990808,129.485752 87.9853894,132.42307 C89.864343,135.069563 88.9682267,139.199257 86.2509708,140.886033 C84.3431103,142.136574 81.8860173,142.107492 79.775808,141.671257 C69.4849241,139.490081 58.9627845,138.501281 48.4695518,139.315586 C39.5662029,140.071728 30.6628539,142.252904 22.7423422,146.440762 C22.3665515,146.702503 21.7016911,146.731585 21.3837143,146.29535 C21.1235515,145.91728 21.2391794,145.393797 21.5282492,145.073892 C23.7251795,142.020245 26.789319,139.722739 29.8823656,137.686975 C35.0278075,134.429752 40.664668,132.044999 46.3593425,130.009235 C44.7405518,129.282176 42.9772262,128.96227 41.2428075,128.758694 C40.4623192,128.642364 39.6529238,128.700529 38.8724354,128.438788 C38.4966447,128.002553 38.4099238,127.246412 39.0169703,126.98467 Z" id="Shape"></path>
                    <path d="M137.277711,122.944308 C146.817014,121.344779 157.021177,122.042755 165.779991,126.463272 C166.242502,126.754096 166.907363,126.92859 167.138619,127.510237 C167.283153,128.091884 166.820642,128.644448 166.213595,128.615366 C163.901037,128.78986 161.559572,129.109766 159.391549,130.011319 C165.317479,132.163412 171.127781,134.60633 176.446665,138.038047 C179.424084,139.986564 182.285874,142.254988 184.367177,145.221387 C184.974223,145.948446 184.0492,147.053575 183.239805,146.530093 C179.048293,144.319834 174.596619,142.603976 170.000409,141.440682 C162.022084,139.346753 153.725781,138.794188 145.545107,139.114094 C138.925409,139.404917 132.363525,140.335553 125.859455,141.673341 C123.662525,142.109576 121.205432,142.022329 119.326478,140.713623 C116.811571,138.968682 116.002176,135.071647 117.736595,132.512401 C119.037409,130.447554 121.118711,128.993436 123.200013,127.771978 C127.507153,125.270896 132.363525,123.787696 137.277711,122.944308 Z" id="Shape"></path>
                </g>
            </g>
        </g>
    </g>
</svg>