<svg width="223" height="45" viewBox="0 0 223 45" fill="none" xmlns="http://www.w3.org/2000/svg">
<path d="M57 39H75.4V33.32H63.48V6H57V39Z" fill="#0B0B2C"/>
<path d="M89.6319 39.64C91.7919 39.64 93.7519 39.1733 95.5119 38.24C97.2719 37.3067 98.6319 36.0133 99.5919 34.36L95.1719 32.14C94.4119 33.0467 93.6185 33.7067 92.7919 34.12C91.9785 34.5333 91.0385 34.74 89.9719 34.74C88.2652 34.74 86.8919 34.2667 85.8519 33.32C84.8119 32.3733 84.2919 31.12 84.2919 29.56H99.9919C100.032 29.2133 100.052 28.98 100.052 28.86C100.065 28.7267 100.072 28.5733 100.072 28.4C100.072 26.3067 99.6185 24.4733 98.7119 22.9C97.8185 21.3267 96.5652 20.1 94.9519 19.22C93.3519 18.3267 91.4852 17.88 89.3519 17.88C87.2185 17.88 85.2919 18.3667 83.5719 19.34C81.8652 20.3 80.5052 21.6 79.4919 23.24C78.4785 24.88 77.9719 26.72 77.9719 28.76C77.9719 30.8267 78.4785 32.68 79.4919 34.32C80.5185 35.96 81.9119 37.26 83.6719 38.22C85.4319 39.1667 87.4185 39.64 89.6319 39.64ZM84.5119 26.16C84.6452 24.9733 85.1385 24.04 85.9919 23.36C86.8452 22.68 87.9385 22.34 89.2719 22.34C90.5385 22.34 91.5919 22.68 92.4319 23.36C93.2852 24.04 93.8185 24.9733 94.0319 26.16H84.5119Z" fill="#0B0B2C"/>
<path d="M113.957 39.64C115.357 39.64 116.664 39.3533 117.877 38.78C119.104 38.1933 120.184 37.3667 121.117 36.3V39H127.257V18.52H121.117V21.02C120.304 20.0333 119.27 19.2667 118.017 18.72C116.764 18.16 115.41 17.88 113.957 17.88C111.984 17.88 110.23 18.36 108.697 19.32C107.177 20.2667 105.984 21.56 105.117 23.2C104.25 24.8267 103.817 26.6667 103.817 28.72C103.817 30.8267 104.27 32.7067 105.177 34.36C106.084 36 107.297 37.2933 108.817 38.24C110.35 39.1733 112.064 39.64 113.957 39.64ZM115.777 34.42C114.19 34.42 112.877 33.8867 111.837 32.82C110.797 31.7533 110.277 30.4 110.277 28.76C110.277 27.12 110.797 25.7667 111.837 24.7C112.89 23.6333 114.204 23.1 115.777 23.1C117.364 23.1 118.67 23.6333 119.697 24.7C120.737 25.7533 121.257 27.1067 121.257 28.76C121.257 30.4133 120.744 31.7733 119.717 32.84C118.69 33.8933 117.377 34.42 115.777 34.42Z" fill="#0B0B2C"/>
<path d="M133.479 39H139.619V27.56C139.619 26.8 139.839 26.0933 140.279 25.44C140.733 24.7733 141.313 24.2333 142.019 23.82C142.739 23.4067 143.499 23.2 144.299 23.2C145.459 23.2 146.553 23.5333 147.579 24.2L150.139 19.02C149.606 18.6867 148.953 18.4133 148.179 18.2C147.419 17.9867 146.679 17.88 145.959 17.88C144.693 17.88 143.506 18.1933 142.399 18.82C141.306 19.4333 140.379 20.3133 139.619 21.46V18.52H133.479V39Z" fill="#0B0B2C"/>
<path d="M153.558 39H159.698V26.88C159.698 25.6933 160.091 24.7 160.878 23.9C161.664 23.0867 162.738 22.68 164.098 22.68C165.431 22.68 166.478 23.0933 167.238 23.92C168.011 24.7333 168.397 25.8733 168.397 27.34V39H174.537V26.04C174.537 24.4133 174.198 22.9933 173.518 21.78C172.838 20.5533 171.897 19.6 170.698 18.92C169.511 18.2267 168.131 17.88 166.558 17.88C165.144 17.88 163.844 18.1533 162.658 18.7C161.471 19.2333 160.484 19.9333 159.698 20.8V18.52H153.558V39Z" fill="#0B0B2C"/>
<path d="M190.21 39.64C192.37 39.64 194.33 39.1733 196.09 38.24C197.85 37.3067 199.21 36.0133 200.17 34.36L195.75 32.14C194.99 33.0467 194.197 33.7067 193.37 34.12C192.557 34.5333 191.617 34.74 190.55 34.74C188.843 34.74 187.47 34.2667 186.43 33.32C185.39 32.3733 184.87 31.12 184.87 29.56H200.57C200.61 29.2133 200.63 28.98 200.63 28.86C200.643 28.7267 200.65 28.5733 200.65 28.4C200.65 26.3067 200.197 24.4733 199.29 22.9C198.397 21.3267 197.143 20.1 195.53 19.22C193.93 18.3267 192.063 17.88 189.93 17.88C187.797 17.88 185.87 18.3667 184.15 19.34C182.443 20.3 181.083 21.6 180.07 23.24C179.057 24.88 178.55 26.72 178.55 28.76C178.55 30.8267 179.057 32.68 180.07 34.32C181.097 35.96 182.49 37.26 184.25 38.22C186.01 39.1667 187.997 39.64 190.21 39.64ZM185.09 26.16C185.223 24.9733 185.717 24.04 186.57 23.36C187.423 22.68 188.517 22.34 189.85 22.34C191.117 22.34 192.17 22.68 193.01 23.36C193.863 24.04 194.397 24.9733 194.61 26.16H185.09Z" fill="#0B0B2C"/>
<path d="M206.112 39H212.252V27.56C212.252 26.8 212.472 26.0933 212.912 25.44C213.366 24.7733 213.946 24.2333 214.652 23.82C215.372 23.4067 216.132 23.2 216.932 23.2C218.092 23.2 219.186 23.5333 220.212 24.2L222.772 19.02C222.239 18.6867 221.586 18.4133 220.812 18.2C220.052 17.9867 219.312 17.88 218.592 17.88C217.326 17.88 216.139 18.1933 215.032 18.82C213.939 19.4333 213.012 20.3133 212.252 21.46V18.52H206.112V39Z" fill="#0B0B2C"/>
<path d="M45 22.5C45 34.9264 34.9264 45 22.5 45C10.0736 45 0 34.9264 0 22.5C0 10.0736 10.0736 0 22.5 0C34.9264 0 45 10.0736 45 22.5Z" fill="#2E41F5"/>
<path d="M23.1922 10.4236C23.669 9.54614 24.5865 9 25.5838 9H31.0911C31.7797 9 32.2175 9.73789 31.8883 10.3437L19.8078 32.5764C19.331 33.4539 18.4135 34 17.4162 34H11.9089C11.2203 34 10.7825 33.2621 11.1117 32.6563L23.1922 10.4236Z" fill="white"/>
<path d="M27 28.32C27 26.8079 27 26.0518 27.2943 25.4742C27.5531 24.9662 27.9662 24.5531 28.4742 24.2943C29.0518 24 29.8079 24 31.32 24H31.68C33.1921 24 33.9482 24 34.5258 24.2943C35.0338 24.5531 35.4469 24.9662 35.7057 25.4742C36 26.0518 36 26.8079 36 28.32V28.68C36 30.1921 36 30.9482 35.7057 31.5258C35.4469 32.0338 35.0338 32.4469 34.5258 32.7057C33.9482 33 33.1921 33 31.68 33H31.32C29.8079 33 29.0518 33 28.4742 32.7057C27.9662 32.4469 27.5531 32.0338 27.2943 31.5258C27 30.9482 27 30.1921 27 28.68V28.32Z" fill="white"/>
</svg>
