<?xml version="1.0" encoding="utf-8"?>
<!-- Generator: Adobe Illustrator 27.2.0, SVG Export Plug-In . SVG Version: 6.00 Build 0)  -->
<svg version="1.1" id="Layer_1" xmlns="http://www.w3.org/2000/svg" xmlns:xlink="http://www.w3.org/1999/xlink" x="0px" y="0px"
	 viewBox="0 0 300 75.1" style="enable-background:new 0 0 300 75.1;" xml:space="preserve">
<style type="text/css">
	.st0{fill:#FFFFFF;}
	.st1{fill:#F5D821;}
</style>
<g>
	<g>
		<g>
			<path class="st0" d="M4.9,18.3c0-2.3,0.2-5.1,0.2-5.1H0v-2.3c0,0,3.4-0.7,5.3-2.4L8.2,0l3.5,0.1l0.2,0.2c0,0-0.7,2.3-0.7,7.8v1.2
				h12.1L22.8,13H12l-0.8,0.8v19.8c0,4.5,1.3,7,5.4,7c3.5,0,7-1.6,7-1.6l1,1.5c0,0-4.4,4.8-11.2,4.8C8,45.3,4.9,42.1,4.9,35V18.3z"
				/>
			<path class="st0" d="M31,18.3c0-3.3-0.1-5.3-2.3-5.3h-2.7v-2.2c7.5-1.3,11.8-2.9,11.8-2.9l0.3,0.2c0,0-0.7,2.2-0.7,8.2V33
				c0,5.9,2.1,7.5,5.3,7.5c3.6,0,7.9-2.1,11.3-5.5V18.3c0-3.3-0.1-5.3-2.3-5.3H49v-2.2c7.5-1.3,11.7-2.9,11.7-2.9L61,8.2
				c0,0-0.7,2.2-0.7,8.2v20.6c0,4.4,1.8,4.4,4.4,4.4h2.2l-0.2,2.1C58.1,44.3,53.8,45,53.8,45l-0.3-0.2c0,0,0.7-2.3,0.7-4.2v-4.1
				c-2.8,4.1-7.9,8.7-14.5,8.7c-5.4,0-8.8-3-8.8-10.4V18.3z"/>
			<path class="st0" d="M71,18.3c0-2.3,0.2-5.1,0.2-5.1h-5.1v-2.3c0,0,3.4-0.7,5.3-2.4L74.2,0l3.5,0.1L78,0.3c0,0-0.7,2.3-0.7,7.8
				v1.2h12.1L88.8,13H78.1l-0.8,0.8v19.8c0,4.5,1.3,7,5.4,7c3.5,0,7-1.6,7-1.6l1,1.5c0,0-4.4,4.8-11.2,4.8c-5.5,0-8.6-3.1-8.6-10.2
				V18.3z"/>
			<path class="st0" d="M109.8,8.3c11.3,0,17.2,7.5,17.2,17.1c0,9.7-6,19.9-18.4,19.9c-11,0-17-7.7-17-17.7
				C91.5,18.5,96.6,8.3,109.8,8.3z M109.6,42.6c6.6,0,10.2-6.7,10.2-15c0-7.7-3.1-16.6-11-16.6c-7.2,0-10.2,7.3-10.2,14.8
				C98.7,33.6,101.9,42.6,109.6,42.6z"/>
			<path class="st0" d="M129.5,42.3c3.5-0.4,4.8-2.3,4.8-5.1V18.3c0-3.3-0.1-5.3-2.3-5.3h-3.5v-2.1c7.6-1.6,12.6-3.7,12.6-3.7
				l0.2,0.2c0,0-0.7,2.6-0.9,9.9c2.3-4.4,6.5-9,10.5-9c1.9,0,4.2,0.9,4.2,3.6c0,2.3-1.6,3.8-3.7,3.8c-1.8,0-2-1.3-3.8-1.3
				c-2.6,0-5.2,2.6-6.9,4.5v18.3c0,2.3-0.4,4.2-0.4,4.2l7.4,0.7l-0.3,1.9l-17.9,0.5V42.3z"/>
			<path class="st1" d="M159.3,35.9c2.6,0,4.7,2.1,4.7,4.7c0,2.6-2.1,4.7-4.7,4.7c-2.6,0-4.7-2.1-4.7-4.7
				C154.6,38,156.7,35.9,159.3,35.9z"/>
			<path class="st0" d="M184.3,8.3c4.7,0,12.3,1.9,12.3,5.9c0,1.5-1.1,2.8-3,2.8c-4,0-4.4-6.1-9.9-6.1c-6.2,0-9.7,6.7-9.7,14.3
				c0,7.5,3.7,14.8,12.8,14.8c5.8,0,9-3.2,9-3.2l0.9,1.6c0,0-3.6,6.8-12.6,6.8c-10.9,0-16.5-8.8-16.5-17.8
				C167.7,18.1,173.6,8.3,184.3,8.3z"/>
			<path class="st0" d="M217.4,8.3c11.3,0,17.2,7.5,17.2,17.1c0,9.7-6,19.9-18.4,19.9c-11,0-17-7.7-17-17.7
				C199.1,18.5,204.1,8.3,217.4,8.3z M217.2,42.6c6.6,0,10.2-6.7,10.2-15c0-7.7-3.1-16.6-11-16.6c-7.2,0-10.2,7.3-10.2,14.8
				C206.2,33.6,209.4,42.6,217.2,42.6z"/>
			<path class="st0" d="M237,42.3c3.4-0.4,4.7-2.2,4.7-5V18.8c0-3.3-0.1-5.2-2.3-5.2h-3.3v-2.1c7.5-1.5,12.2-3.6,12.2-3.6l0.2,0.2
				c0,0-0.7,2.4-0.9,9.3c2.7-4,7.6-8.4,13.8-8.4c4.9,0,8,2.8,8,8.8c2.9-4.6,7.9-8.8,14-8.8c5,0,8.2,2.7,8.2,10.3v18
				c0,2.3-0.4,4.1-0.4,4.1l6.5,0.7l-0.3,1.9L281,44.5v-2.2c3.4-0.4,4.4-2.2,4.4-5V21c0-5.8-1.6-7.3-4.4-7.3
				c-3.4,0-11.2,3.1-11.2,7.6v16.1c0,2.3-0.4,4.1-0.4,4.1l6.1,0.7l-0.3,1.9l-16,0.5v-2.2c3.4-0.4,4.4-2.2,4.4-5V21
				c0-5.8-1.6-7.3-4.5-7.3c-3.4,0-7.7,2.1-11,5.4v18.4c0,2.3-0.4,4.1-0.4,4.1l6.1,0.7l-0.3,1.9L237,44.5V42.3z"/>
		</g>
		<g>
			<path class="st0" d="M292.5,10H291V9.2h3.8V10h-1.5v3.9h-0.8V10z"/>
			<path class="st0" d="M295.4,9.2h0.9l1.4,2.2l1.4-2.2h0.9v4.7h-0.8v-3.4l-1.5,2.2h0l-1.5-2.2v3.4h-0.8V9.2z"/>
		</g>
	</g>
	<g>
		<polygon class="st1" points="262.2,75.1 286.7,75.1 286.7,50.7 		"/>
		<g>
			<path class="st0" d="M22.2,56.3h1.1L28.2,67h-1.3l-1.2-2.8h-5.8L18.6,67h-1.2L22.2,56.3z M25.2,63.1l-2.4-5.4l-2.4,5.4H25.2z"/>
			<path class="st0" d="M32.9,65.5l0.7-0.9c1.1,1,2.2,1.5,3.7,1.5c1.4,0,2.4-0.8,2.4-1.8v0c0-1-0.5-1.6-2.8-2
				c-2.4-0.5-3.6-1.3-3.6-3.1v0c0-1.7,1.5-2.9,3.5-2.9c1.6,0,2.7,0.4,3.7,1.3l-0.7,0.9c-1-0.8-2-1.2-3.1-1.2c-1.4,0-2.3,0.8-2.3,1.7
				v0c0,1,0.5,1.6,2.9,2.1c2.4,0.5,3.5,1.4,3.5,3v0c0,1.8-1.5,3-3.6,3C35.5,67.2,34.1,66.6,32.9,65.5z"/>
			<path class="st0" d="M42.3,63.1L42.3,63.1c0-2.3,1.6-4.1,3.8-4.1c2.3,0,3.7,1.9,3.7,4.2c0,0.2,0,0.2,0,0.4h-6.2
				c0.2,1.7,1.4,2.7,2.8,2.7c1.1,0,1.8-0.4,2.5-1.1l0.7,0.7c-0.8,0.9-1.7,1.5-3.2,1.5C44.1,67.2,42.3,65.6,42.3,63.1z M48.6,62.7
				c-0.1-1.4-0.9-2.7-2.5-2.7c-1.4,0-2.4,1.1-2.6,2.7H48.6z"/>
			<path class="st0" d="M51.5,59.2h1.2v2.1c0.6-1.3,1.7-2.3,3.2-2.2v1.3h-0.1c-1.7,0-3.1,1.2-3.1,3.6V67h-1.2V59.2z"/>
			<path class="st0" d="M56.8,59.2h1.3l2.6,6.5l2.7-6.5h1.3l-3.4,7.9h-1L56.8,59.2z"/>
			<path class="st0" d="M66.1,56.2h1.3v1.3h-1.3V56.2z M66.2,59.2h1.2V67h-1.2V59.2z"/>
			<path class="st0" d="M69.1,63.1L69.1,63.1c0-2.3,1.7-4.1,4-4.1c1.5,0,2.4,0.6,3.1,1.4l-0.8,0.8c-0.6-0.7-1.3-1.2-2.4-1.2
				c-1.6,0-2.8,1.4-2.8,3v0c0,1.7,1.2,3.1,2.9,3.1c1,0,1.8-0.5,2.4-1.2l0.7,0.7c-0.8,0.9-1.7,1.5-3.2,1.5
				C70.9,67.2,69.1,65.4,69.1,63.1z"/>
			<path class="st0" d="M77.3,63.1L77.3,63.1c0-2.3,1.6-4.1,3.8-4.1c2.3,0,3.7,1.9,3.7,4.2c0,0.2,0,0.2,0,0.4h-6.2
				c0.2,1.7,1.4,2.7,2.8,2.7c1.1,0,1.8-0.4,2.5-1.1l0.7,0.7c-0.8,0.9-1.7,1.5-3.2,1.5C79,67.2,77.3,65.6,77.3,63.1z M83.5,62.7
				C83.4,61.2,82.6,60,81,60c-1.4,0-2.4,1.1-2.6,2.7H83.5z"/>
			<path class="st0" d="M89.6,63.1L89.6,63.1c0-2.3,1.7-4.1,4.1-4.1c2.4,0,4.1,1.9,4.1,4.1v0c0,2.2-1.7,4.1-4.1,4.1
				C91.3,67.2,89.6,65.4,89.6,63.1z M96.6,63.1L96.6,63.1c0-1.7-1.3-3.1-2.9-3.1c-1.7,0-2.9,1.4-2.9,3v0c0,1.7,1.2,3.1,2.9,3.1
				C95.4,66.2,96.6,64.8,96.6,63.1z"/>
			<path class="st0" d="M99.8,60.2h-1.1v-1h1.1v-0.7c0-0.9,0.2-1.6,0.7-2c0.4-0.4,1-0.6,1.7-0.6c0.5,0,0.9,0.1,1.3,0.2v1
				c-0.4-0.1-0.7-0.2-1.1-0.2c-0.9,0-1.4,0.5-1.4,1.7v0.6h2.5v1h-2.5V67h-1.2V60.2z"/>
			<path class="st0" d="M110.6,58.6h-3.2v-2.2h8.8v2.2H113V67h-2.3V58.6z"/>
			<path class="st0" d="M117.4,55.9h2.3V60c0.5-0.7,1.2-1.3,2.4-1.3c1.7,0,2.8,1.2,2.8,3V67h-2.3v-4.5c0-1.1-0.5-1.7-1.4-1.7
				s-1.4,0.6-1.4,1.7V67h-2.3V55.9z"/>
			<path class="st0" d="M126.2,63L126.2,63c0-2.4,1.7-4.3,4-4.3c2.7,0,4,2.1,4,4.4c0,0.2,0,0.4,0,0.6h-5.7c0.2,1,1,1.6,2,1.6
				c0.8,0,1.3-0.2,2-0.8l1.3,1.2c-0.8,0.9-1.9,1.5-3.3,1.5C128,67.2,126.2,65.5,126.2,63z M131.9,62.3c-0.1-1-0.7-1.7-1.7-1.7
				c-1,0-1.6,0.7-1.8,1.7H131.9z"/>
			<path class="st0" d="M139.4,56.4h4.3c2.5,0,4.1,1.5,4.1,3.7v0c0,2.5-1.9,3.7-4.3,3.7h-1.8V67h-2.3V56.4z M143.6,61.8
				c1.2,0,1.9-0.7,1.9-1.6v0c0-1-0.7-1.6-1.9-1.6h-1.8v3.3H143.6z"/>
			<path class="st0" d="M149,58.9h2.3v1.6c0.5-1.1,1.2-1.9,2.6-1.8v2.4h-0.1c-1.5,0-2.5,0.9-2.5,2.9v3H149V58.9z"/>
			<path class="st0" d="M154.9,55.9h2.4V58h-2.4V55.9z M155,58.9h2.3V67H155V58.9z"/>
			<path class="st0" d="M159.1,58.9h2.3V60c0.5-0.7,1.2-1.3,2.4-1.3c1.7,0,2.8,1.2,2.8,3V67h-2.3v-4.5c0-1.1-0.5-1.7-1.4-1.7
				c-0.9,0-1.4,0.6-1.4,1.7V67h-2.3V58.9z"/>
			<path class="st0" d="M167.9,63L167.9,63c0-2.4,1.8-4.3,4.3-4.3c1.5,0,2.5,0.5,3.3,1.4l-1.4,1.5c-0.5-0.5-1-0.9-1.9-0.9
				c-1.2,0-2,1-2,2.2v0c0,1.2,0.8,2.3,2.1,2.3c0.8,0,1.3-0.3,1.9-0.9l1.4,1.4c-0.8,0.9-1.7,1.5-3.3,1.5
				C169.7,67.2,167.9,65.3,167.9,63z"/>
			<path class="st0" d="M176.1,63L176.1,63c0-2.4,1.7-4.3,4-4.3c2.7,0,4,2.1,4,4.4c0,0.2,0,0.4,0,0.6h-5.7c0.2,1,1,1.6,2,1.6
				c0.8,0,1.3-0.2,2-0.8l1.3,1.2c-0.8,0.9-1.9,1.5-3.3,1.5C177.9,67.2,176.1,65.5,176.1,63z M181.8,62.3c-0.1-1-0.7-1.7-1.7-1.7
				c-1,0-1.6,0.7-1.8,1.7H181.8z"/>
			<path class="st0" d="M185.8,64.7v-3.9h-1v-2h1v-2.1h2.3v2.1h1.9v2h-1.9v3.5c0,0.5,0.2,0.8,0.7,0.8c0.4,0,0.8-0.1,1.1-0.3v1.9
				c-0.5,0.3-1,0.5-1.8,0.5C186.7,67.2,185.8,66.6,185.8,64.7z"/>
			<path class="st0" d="M190.9,63L190.9,63c0-2.4,1.9-4.3,4.4-4.3c2.5,0,4.4,1.9,4.4,4.2v0c0,2.3-1.9,4.2-4.4,4.2
				C192.8,67.2,190.9,65.4,190.9,63z M197.4,63L197.4,63c0-1.2-0.9-2.3-2.1-2.3c-1.3,0-2.1,1-2.1,2.2v0c0,1.2,0.9,2.3,2.1,2.3
				C196.6,65.2,197.4,64.2,197.4,63z"/>
			<path class="st0" d="M201.1,58.9h2.3V60c0.5-0.7,1.2-1.3,2.4-1.3c1.7,0,2.8,1.2,2.8,3V67h-2.3v-4.5c0-1.1-0.5-1.7-1.4-1.7
				s-1.4,0.6-1.4,1.7V67h-2.3V58.9z"/>
			<path class="st0" d="M214.1,56.4h4.9c1.4,0,2.4,0.4,3.1,1.1c0.6,0.6,0.9,1.4,0.9,2.4v0c0,1.7-0.9,2.8-2.3,3.3l2.6,3.8h-2.7
				l-2.3-3.4h-1.8V67h-2.3V56.4z M218.8,61.6c1.1,0,1.8-0.6,1.8-1.5v0c0-1-0.7-1.5-1.8-1.5h-2.3v3.1H218.8z"/>
			<path class="st0" d="M224,63L224,63c0-2.4,1.7-4.3,4-4.3c2.7,0,4,2.1,4,4.4c0,0.2,0,0.4,0,0.6h-5.7c0.2,1,1,1.6,2,1.6
				c0.8,0,1.3-0.2,2-0.8l1.3,1.2c-0.8,0.9-1.9,1.5-3.3,1.5C225.9,67.2,224,65.5,224,63z M229.8,62.3c-0.1-1-0.7-1.7-1.7-1.7
				c-1,0-1.6,0.7-1.8,1.7H229.8z"/>
			<path class="st0" d="M232.3,58.9h2.4l1.8,5.5l1.8-5.5h2.4l-3.2,8.2h-2.1L232.3,58.9z"/>
			<path class="st0" d="M241.8,55.9h2.4V58h-2.4V55.9z M241.8,58.9h2.3V67h-2.3V58.9z"/>
			<path class="st0" d="M245.6,63L245.6,63c0-2.4,1.7-4.3,4-4.3c2.7,0,4,2.1,4,4.4c0,0.2,0,0.4,0,0.6h-5.7c0.2,1,1,1.6,2,1.6
				c0.8,0,1.3-0.2,2-0.8l1.3,1.2c-0.8,0.9-1.9,1.5-3.3,1.5C247.4,67.2,245.6,65.5,245.6,63z M251.3,62.3c-0.1-1-0.7-1.7-1.7-1.7
				c-1,0-1.6,0.7-1.8,1.7H251.3z"/>
			<path class="st0" d="M254,58.9h2.3l1.3,4.9l1.5-5h2l1.6,5l1.3-5h2.3l-2.5,8.2h-2.1l-1.6-5l-1.6,5h-2.1L254,58.9z"/>
			<path class="st0" d="M266.9,60.9L266.9,60.9c0-1.3,1-2.4,2.3-2.4c1.3,0,2.3,1.1,2.3,2.3v0c0,1.3-1,2.3-2.3,2.3
				C267.9,63.2,266.9,62.2,266.9,60.9z M271.3,60.9L271.3,60.9c0-1.2-0.9-2.1-2.1-2.1c-1.2,0-2.1,1-2.1,2.1v0c0,1.1,0.9,2.1,2.1,2.1
				C270.4,63,271.3,62,271.3,60.9z M268.2,59.6h1.2c0.6,0,1,0.3,1,0.8c0,0.4-0.2,0.7-0.5,0.8l0.6,0.9h-0.8l-0.5-0.7h-0.3v0.7h-0.7
				V59.6z M269.3,60.8c0.2,0,0.4-0.1,0.4-0.3c0-0.2-0.1-0.3-0.4-0.3h-0.4v0.6H269.3z"/>
		</g>
	</g>
</g>
</svg>
